<svg width="315.748" height="48.162" viewBox="0 0 315.748 48.162" xmlns="http://www.w3.org/2000/svg"><g id="svgGroup" stroke-linecap="round" fill-rule="evenodd" font-size="9pt" stroke="black" stroke-width="0.25mm" fill="black" style="stroke:black;stroke-width:0.25mm;fill:black"><path d="M 123.333 48.161 L 112.299 48.161 L 112.299 1.15 L 123.333 1.15 L 123.333 29.656 L 137.126 12.184 L 148.851 12.184 L 134.828 30 L 148.851 48.161 L 137.126 48.161 L 123.333 30.46 L 123.333 48.161 Z M 165.862 48.161 L 154.828 48.161 L 154.828 0 L 187.816 0 L 187.816 6.437 L 165.862 6.437 L 165.862 19.311 L 183.103 19.311 L 183.103 25.747 L 165.862 25.747 L 165.862 48.161 Z M 61.954 18.621 L 58.621 18.621 A 10.214 10.214 0 0 0 56.96 18.744 Q 54.021 19.231 53.912 21.651 A 4.206 4.206 0 0 0 53.908 21.839 L 53.908 22.989 L 42.874 22.989 L 42.874 20.69 A 6.493 6.493 0 0 1 45.343 15.525 A 10.428 10.428 0 0 1 46.839 14.483 A 16.702 16.702 0 0 1 52.325 12.521 A 22.702 22.702 0 0 1 56.322 12.184 L 64.138 12.184 A 22.241 22.241 0 0 1 68.669 12.624 A 16.491 16.491 0 0 1 73.621 14.483 A 9.696 9.696 0 0 1 75.669 16.033 A 6.387 6.387 0 0 1 77.586 20.69 L 77.586 48.161 L 66.552 48.161 L 66.552 47.127 A 13.878 13.878 0 0 1 62.803 48.06 A 17.134 17.134 0 0 1 60.92 48.161 L 55.977 48.161 A 24.812 24.812 0 0 1 51.532 47.792 Q 49.115 47.351 47.262 46.383 A 10.426 10.426 0 0 1 43.563 43.219 A 5.992 5.992 0 0 1 42.414 39.656 L 42.414 33.908 A 6.384 6.384 0 0 1 44.644 29.027 A 10.57 10.57 0 0 1 46.379 27.759 A 16.348 16.348 0 0 1 51.676 25.792 A 22.664 22.664 0 0 1 55.977 25.403 L 61.494 25.403 A 12.462 12.462 0 0 1 63.618 25.573 Q 64.785 25.775 65.734 26.216 A 6.714 6.714 0 0 1 66.552 26.667 L 66.552 21.839 A 3.123 3.123 0 0 0 66.173 20.257 Q 65.447 18.996 63.333 18.707 A 10.226 10.226 0 0 0 61.954 18.621 Z M 0 0 L 22.184 0 A 22.241 22.241 0 0 1 26.714 0.44 A 16.491 16.491 0 0 1 31.667 2.299 A 9.44 9.44 0 0 1 33.758 3.904 A 6.56 6.56 0 0 1 35.632 8.621 L 35.632 39.541 A 6.521 6.521 0 0 1 33.107 44.774 A 10.573 10.573 0 0 1 31.494 45.862 Q 27.805 48.098 22.484 48.16 A 26.146 26.146 0 0 1 22.184 48.161 L 0 48.161 L 0 0 Z M 196.207 39.541 L 196.207 20.69 A 6.605 6.605 0 0 1 198.713 15.457 A 10.693 10.693 0 0 1 200.172 14.426 A 16.348 16.348 0 0 1 205.469 12.458 A 22.664 22.664 0 0 1 209.77 12.069 L 217.471 12.069 Q 222.781 12.069 226.493 14.198 A 13.813 13.813 0 0 1 226.782 14.368 A 9.932 9.932 0 0 1 228.874 15.885 A 6.43 6.43 0 0 1 230.92 20.69 L 230.92 39.541 A 6.521 6.521 0 0 1 228.394 44.774 A 10.573 10.573 0 0 1 226.782 45.862 Q 223.092 48.098 217.772 48.16 A 26.146 26.146 0 0 1 217.471 48.161 L 209.77 48.161 A 24.812 24.812 0 0 1 205.325 47.792 Q 202.908 47.351 201.055 46.383 A 10.426 10.426 0 0 1 197.356 43.219 A 6.169 6.169 0 0 1 196.207 39.541 Z M 281.034 39.541 L 281.034 20.69 A 6.605 6.605 0 0 1 283.54 15.457 A 10.693 10.693 0 0 1 285 14.426 A 16.348 16.348 0 0 1 290.297 12.458 A 22.664 22.664 0 0 1 294.598 12.069 L 302.299 12.069 Q 307.608 12.069 311.321 14.198 A 13.813 13.813 0 0 1 311.609 14.368 A 9.932 9.932 0 0 1 313.701 15.885 A 6.43 6.43 0 0 1 315.747 20.69 L 315.747 39.541 A 6.521 6.521 0 0 1 313.222 44.774 A 10.573 10.573 0 0 1 311.609 45.862 Q 307.92 48.098 302.599 48.16 A 26.146 26.146 0 0 1 302.299 48.161 L 294.598 48.161 A 24.812 24.812 0 0 1 290.153 47.792 Q 287.736 47.351 285.882 46.383 A 10.426 10.426 0 0 1 282.184 43.219 A 6.169 6.169 0 0 1 281.034 39.541 Z M 96.897 12.184 L 96.897 14.943 Q 99.181 12.658 103.357 12.266 A 19.405 19.405 0 0 1 105.172 12.184 L 107.126 12.184 L 107.126 18.621 L 104.253 18.621 A 12.114 12.114 0 0 0 101.82 18.848 Q 98.991 19.429 97.586 21.495 A 3.362 3.362 0 0 0 96.897 23.564 L 96.897 48.161 L 85.862 48.161 L 85.862 12.184 L 96.897 12.184 Z M 251.149 48.161 L 240.115 48.161 L 240.115 2.069 L 251.149 2.069 L 251.149 48.161 Z M 11.034 41.724 L 19.885 41.724 A 10.214 10.214 0 0 0 21.546 41.602 Q 24.485 41.115 24.594 38.695 A 4.206 4.206 0 0 0 24.598 38.506 L 24.598 9.656 A 3.036 3.036 0 0 0 24.182 8.028 Q 23.436 6.821 21.349 6.53 A 10.633 10.633 0 0 0 19.885 6.437 L 11.034 6.437 L 11.034 41.724 Z M 261.264 48.161 L 261.264 12.184 L 272.299 12.184 L 272.299 48.161 L 261.264 48.161 Z M 211.954 41.724 L 215.287 41.724 Q 219.759 41.724 219.882 38.68 A 4.326 4.326 0 0 0 219.885 38.506 L 219.885 21.724 A 3.123 3.123 0 0 0 219.506 20.142 Q 218.781 18.881 216.667 18.592 A 10.226 10.226 0 0 0 215.287 18.506 L 211.954 18.506 A 10.214 10.214 0 0 0 210.293 18.629 Q 207.354 19.116 207.246 21.536 A 4.206 4.206 0 0 0 207.241 21.724 L 207.241 38.506 A 3.036 3.036 0 0 0 207.657 40.133 Q 208.403 41.34 210.49 41.632 A 10.633 10.633 0 0 0 211.954 41.724 Z M 296.782 41.724 L 300.115 41.724 Q 304.587 41.724 304.709 38.68 A 4.326 4.326 0 0 0 304.713 38.506 L 304.713 21.724 A 3.123 3.123 0 0 0 304.334 20.142 Q 303.608 18.881 301.494 18.592 A 10.226 10.226 0 0 0 300.115 18.506 L 296.782 18.506 A 10.214 10.214 0 0 0 295.121 18.629 Q 292.182 19.116 292.073 21.536 A 4.206 4.206 0 0 0 292.069 21.724 L 292.069 38.506 A 3.036 3.036 0 0 0 292.484 40.133 Q 293.231 41.34 295.318 41.632 A 10.633 10.633 0 0 0 296.782 41.724 Z M 58.161 41.724 L 61.954 41.724 Q 66.426 41.724 66.548 38.68 A 4.326 4.326 0 0 0 66.552 38.506 L 66.552 34.943 A 3.142 3.142 0 0 0 65.98 33.273 Q 65.129 32.119 63.038 31.894 A 10.158 10.158 0 0 0 61.954 31.839 L 58.161 31.839 A 10.214 10.214 0 0 0 56.5 31.962 Q 53.561 32.449 53.452 34.869 A 4.206 4.206 0 0 0 53.448 35.058 L 53.448 38.506 A 3.036 3.036 0 0 0 53.864 40.133 Q 54.61 41.34 56.697 41.632 A 10.633 10.633 0 0 0 58.161 41.724 Z M 261.264 2.529 L 272.299 2.529 L 272.299 8.966 L 261.264 8.966 L 261.264 2.529 Z" vector-effect="non-scaling-stroke"/></g></svg>
